<svg xmlns="http://www.w3.org/2000/svg" viewBox="0 0 1024 1024">
<defs>
 <radialGradient id="bg" cx="50%" cy="38%" r="75%">
  <stop offset="0" stop-color="#5a1220"/><stop offset=".45" stop-color="#22070f"/><stop offset="1" stop-color="#07040a"/>
 </radialGradient>
 <radialGradient id="halo" cx="50%" cy="50%" r="50%">
  <stop offset="0" stop-color="#ff4a3a" stop-opacity=".55"/><stop offset=".6" stop-color="#b3122a" stop-opacity=".18"/><stop offset="1" stop-color="#b3122a" stop-opacity="0"/>
 </radialGradient>
 <linearGradient id="moon" x1="0" y1="0" x2="1" y2="1">
  <stop offset="0" stop-color="#fff3e2"/><stop offset=".6" stop-color="#f1c9a6"/><stop offset="1" stop-color="#d9826a"/>
 </linearGradient>
 <linearGradient id="blade" x1="0" y1="0" x2="1" y2="0">
  <stop offset="0" stop-color="#2a2f38"/><stop offset=".48" stop-color="#cfd6de"/><stop offset=".52" stop-color="#7d8794"/><stop offset="1" stop-color="#1a1e25"/>
 </linearGradient>
 <linearGradient id="edge" x1="0" y1="0" x2="0" y2="1">
  <stop offset="0" stop-color="#ffd0a0" stop-opacity="0"/><stop offset=".55" stop-color="#ff6a3c" stop-opacity=".95"/><stop offset="1" stop-color="#ff2e2e"/>
 </linearGradient>
 <mask id="crescent"><rect width="1024" height="1024" fill="black"/><circle cx="512" cy="430" r="250" fill="white"/><circle cx="600" cy="370" r="225" fill="black"/></mask>
</defs>
<rect width="1024" height="1024" fill="url(#bg)"/>
<circle cx="512" cy="430" r="430" fill="url(#halo)"/>
<path d="M475.3,182.7 A250,250 0 1,0 728.8,554.5 A225,225 0 1,1 475.3,182.7 Z" fill="url(#moon)"/>
<line x1="411" y1="516" x2="353" y2="696" stroke="#05060a" stroke-width="3.9" stroke-linecap="round" opacity="0.24"/><line x1="593" y1="103" x2="552" y2="230" stroke="#05060a" stroke-width="4.5" stroke-linecap="round" opacity="0.32"/><line x1="-73" y1="234" x2="-96" y2="306" stroke="#05060a" stroke-width="5.2" stroke-linecap="round" opacity="0.29"/><line x1="-143" y1="980" x2="-203" y2="1166" stroke="#05060a" stroke-width="4.6" stroke-linecap="round" opacity="0.27"/><line x1="13" y1="-83" x2="-29" y2="45" stroke="#05060a" stroke-width="2.2" stroke-linecap="round" opacity="0.15"/><line x1="127" y1="-67" x2="88" y2="53" stroke="#05060a" stroke-width="3.8" stroke-linecap="round" opacity="0.34"/><line x1="501" y1="604" x2="461" y2="729" stroke="#05060a" stroke-width="4.6" stroke-linecap="round" opacity="0.23"/><line x1="176" y1="997" x2="115" y2="1187" stroke="#05060a" stroke-width="5.4" stroke-linecap="round" opacity="0.30"/><line x1="226" y1="153" x2="194" y2="250" stroke="#05060a" stroke-width="2.3" stroke-linecap="round" opacity="0.31"/><line x1="341" y1="831" x2="305" y2="941" stroke="#05060a" stroke-width="5.8" stroke-linecap="round" opacity="0.34"/><line x1="-199" y1="131" x2="-256" y2="309" stroke="#05060a" stroke-width="3.9" stroke-linecap="round" opacity="0.37"/><line x1="337" y1="-20" x2="291" y2="122" stroke="#05060a" stroke-width="5.1" stroke-linecap="round" opacity="0.18"/><line x1="-82" y1="266" x2="-142" y2="451" stroke="#05060a" stroke-width="5.0" stroke-linecap="round" opacity="0.13"/><line x1="133" y1="11" x2="111" y2="79" stroke="#05060a" stroke-width="5.2" stroke-linecap="round" opacity="0.15"/><line x1="555" y1="392" x2="528" y2="477" stroke="#05060a" stroke-width="4.9" stroke-linecap="round" opacity="0.14"/><line x1="669" y1="28" x2="632" y2="143" stroke="#05060a" stroke-width="2.9" stroke-linecap="round" opacity="0.18"/><line x1="1111" y1="784" x2="1079" y2="883" stroke="#05060a" stroke-width="5.5" stroke-linecap="round" opacity="0.16"/><line x1="332" y1="840" x2="286" y2="983" stroke="#05060a" stroke-width="2.4" stroke-linecap="round" opacity="0.38"/><line x1="88" y1="184" x2="37" y2="345" stroke="#05060a" stroke-width="3.3" stroke-linecap="round" opacity="0.18"/><line x1="-101" y1="-1" x2="-144" y2="135" stroke="#05060a" stroke-width="3.0" stroke-linecap="round" opacity="0.27"/><line x1="302" y1="399" x2="243" y2="583" stroke="#05060a" stroke-width="3.9" stroke-linecap="round" opacity="0.26"/><line x1="970" y1="101" x2="944" y2="181" stroke="#05060a" stroke-width="5.6" stroke-linecap="round" opacity="0.33"/><line x1="137" y1="109" x2="87" y2="265" stroke="#05060a" stroke-width="5.8" stroke-linecap="round" opacity="0.16"/><line x1="1083" y1="870" x2="1038" y2="1009" stroke="#05060a" stroke-width="3.7" stroke-linecap="round" opacity="0.13"/><line x1="-148" y1="959" x2="-177" y2="1050" stroke="#05060a" stroke-width="4.8" stroke-linecap="round" opacity="0.17"/><line x1="912" y1="556" x2="881" y2="654" stroke="#05060a" stroke-width="2.7" stroke-linecap="round" opacity="0.30"/><line x1="-107" y1="151" x2="-150" y2="284" stroke="#05060a" stroke-width="5.4" stroke-linecap="round" opacity="0.27"/><line x1="178" y1="909" x2="151" y2="996" stroke="#05060a" stroke-width="2.1" stroke-linecap="round" opacity="0.18"/><line x1="402" y1="-33" x2="375" y2="49" stroke="#05060a" stroke-width="3.5" stroke-linecap="round" opacity="0.26"/><line x1="-22" y1="298" x2="-79" y2="474" stroke="#05060a" stroke-width="5.9" stroke-linecap="round" opacity="0.28"/><line x1="733" y1="543" x2="708" y2="621" stroke="#05060a" stroke-width="2.1" stroke-linecap="round" opacity="0.11"/><line x1="1029" y1="671" x2="970" y2="856" stroke="#05060a" stroke-width="2.1" stroke-linecap="round" opacity="0.28"/><line x1="451" y1="704" x2="419" y2="805" stroke="#05060a" stroke-width="6.0" stroke-linecap="round" opacity="0.12"/><line x1="537" y1="711" x2="481" y2="888" stroke="#05060a" stroke-width="4.9" stroke-linecap="round" opacity="0.30"/><line x1="871" y1="907" x2="837" y2="1012" stroke="#05060a" stroke-width="4.7" stroke-linecap="round" opacity="0.35"/><line x1="976" y1="359" x2="924" y2="522" stroke="#05060a" stroke-width="5.5" stroke-linecap="round" opacity="0.26"/><line x1="644" y1="321" x2="600" y2="456" stroke="#05060a" stroke-width="4.4" stroke-linecap="round" opacity="0.12"/><line x1="663" y1="993" x2="607" y2="1167" stroke="#05060a" stroke-width="4.9" stroke-linecap="round" opacity="0.21"/><line x1="792" y1="539" x2="755" y2="656" stroke="#05060a" stroke-width="5.4" stroke-linecap="round" opacity="0.12"/><line x1="813" y1="-67" x2="769" y2="71" stroke="#05060a" stroke-width="3.9" stroke-linecap="round" opacity="0.16"/><line x1="743" y1="447" x2="698" y2="587" stroke="#05060a" stroke-width="5.7" stroke-linecap="round" opacity="0.17"/><line x1="-185" y1="231" x2="-232" y2="379" stroke="#05060a" stroke-width="2.8" stroke-linecap="round" opacity="0.15"/><line x1="1023" y1="626" x2="985" y2="743" stroke="#05060a" stroke-width="5.6" stroke-linecap="round" opacity="0.19"/><line x1="699" y1="118" x2="662" y2="234" stroke="#05060a" stroke-width="5.2" stroke-linecap="round" opacity="0.36"/><line x1="988" y1="323" x2="945" y2="459" stroke="#05060a" stroke-width="3.3" stroke-linecap="round" opacity="0.14"/><line x1="470" y1="821" x2="416" y2="991" stroke="#05060a" stroke-width="4.8" stroke-linecap="round" opacity="0.37"/><line x1="174" y1="86" x2="136" y2="205" stroke="#05060a" stroke-width="3.1" stroke-linecap="round" opacity="0.16"/><line x1="359" y1="588" x2="319" y2="713" stroke="#05060a" stroke-width="3.3" stroke-linecap="round" opacity="0.33"/><line x1="1126" y1="398" x2="1103" y2="467" stroke="#05060a" stroke-width="2.1" stroke-linecap="round" opacity="0.34"/><line x1="-144" y1="679" x2="-187" y2="814" stroke="#05060a" stroke-width="3.2" stroke-linecap="round" opacity="0.32"/><line x1="-174" y1="49" x2="-212" y2="169" stroke="#05060a" stroke-width="2.1" stroke-linecap="round" opacity="0.33"/><line x1="121" y1="55" x2="99" y2="121" stroke="#05060a" stroke-width="4.5" stroke-linecap="round" opacity="0.23"/><line x1="650" y1="621" x2="598" y2="786" stroke="#05060a" stroke-width="5.8" stroke-linecap="round" opacity="0.29"/><line x1="69" y1="423" x2="42" y2="506" stroke="#05060a" stroke-width="2.0" stroke-linecap="round" opacity="0.23"/><line x1="764" y1="97" x2="734" y2="192" stroke="#05060a" stroke-width="3.4" stroke-linecap="round" opacity="0.30"/><line x1="503" y1="576" x2="452" y2="734" stroke="#05060a" stroke-width="3.6" stroke-linecap="round" opacity="0.32"/><line x1="1023" y1="-4" x2="965" y2="177" stroke="#05060a" stroke-width="4.9" stroke-linecap="round" opacity="0.14"/><line x1="412" y1="588" x2="355" y2="766" stroke="#05060a" stroke-width="3.5" stroke-linecap="round" opacity="0.26"/><line x1="987" y1="776" x2="929" y2="959" stroke="#05060a" stroke-width="3.9" stroke-linecap="round" opacity="0.28"/><line x1="77" y1="694" x2="23" y2="861" stroke="#05060a" stroke-width="4.6" stroke-linecap="round" opacity="0.30"/><line x1="88" y1="890" x2="28" y2="1077" stroke="#05060a" stroke-width="5.9" stroke-linecap="round" opacity="0.25"/><line x1="868" y1="252" x2="811" y2="431" stroke="#05060a" stroke-width="5.4" stroke-linecap="round" opacity="0.20"/><line x1="-88" y1="385" x2="-130" y2="517" stroke="#05060a" stroke-width="5.1" stroke-linecap="round" opacity="0.24"/><line x1="-162" y1="790" x2="-184" y2="858" stroke="#05060a" stroke-width="5.2" stroke-linecap="round" opacity="0.15"/><line x1="252" y1="767" x2="227" y2="845" stroke="#05060a" stroke-width="2.6" stroke-linecap="round" opacity="0.24"/><line x1="777" y1="824" x2="729" y2="974" stroke="#05060a" stroke-width="5.8" stroke-linecap="round" opacity="0.24"/><line x1="1081" y1="-5" x2="1053" y2="83" stroke="#05060a" stroke-width="4.1" stroke-linecap="round" opacity="0.18"/><line x1="784" y1="603" x2="743" y2="731" stroke="#05060a" stroke-width="5.4" stroke-linecap="round" opacity="0.26"/><line x1="221" y1="319" x2="166" y2="489" stroke="#05060a" stroke-width="5.6" stroke-linecap="round" opacity="0.16"/><line x1="949" y1="965" x2="908" y2="1093" stroke="#05060a" stroke-width="4.3" stroke-linecap="round" opacity="0.16"/>
<!-- greatsword driven down through the crescent -->
<g transform="translate(46 18) rotate(-14 512 512)">
 <polygon points="512,250 548,300 540,900 512,960 484,900 476,300" fill="url(#blade)"/>
 <polygon points="512,560 540,600 540,900 512,960 484,900 484,600" fill="url(#edge)" opacity=".85"/>
 <line x1="512" y1="300" x2="512" y2="900" stroke="#0d0f14" stroke-width="5" opacity=".7"/>
 <path d="M372 300 Q392 262 440 262 L584 262 Q632 262 652 300 L640 304 Q620 282 584 284 L440 284 Q404 282 384 304 Z" fill="#141820"/><path d="M470 262 L554 262 L540 292 L484 292 Z" fill="#1f242d"/>
 <circle cx="512" cy="262" r="17" fill="#ff3b30"/>
 <rect x="498" y="110" width="28" height="150" rx="10" fill="#1d1612"/>
 <g stroke="#3b2a20" stroke-width="5"><line x1="498" y1="120" x2="526" y2="134"/><line x1="498" y1="138" x2="526" y2="152"/><line x1="498" y1="156" x2="526" y2="170"/><line x1="498" y1="174" x2="526" y2="188"/><line x1="498" y1="192" x2="526" y2="206"/><line x1="498" y1="210" x2="526" y2="224"/><line x1="498" y1="228" x2="526" y2="242"/><line x1="498" y1="246" x2="526" y2="260"/></g>
 <circle cx="512" cy="98" r="24" fill="#141820"/><circle cx="512" cy="98" r="9" fill="#ff3b30"/>
</g>
<circle cx="364" cy="663" r="4.4" fill="#ff9a4a" opacity="0.37"/><circle cx="761" cy="668" r="3.6" fill="#ff9a4a" opacity="0.83"/><circle cx="378" cy="637" r="4.8" fill="#ff9a4a" opacity="0.39"/><circle cx="389" cy="665" r="5.8" fill="#ff9a4a" opacity="0.90"/><circle cx="537" cy="857" r="2.5" fill="#ff9a4a" opacity="0.61"/><circle cx="707" cy="424" r="3.9" fill="#ff9a4a" opacity="0.54"/><circle cx="645" cy="881" r="5.7" fill="#ff9a4a" opacity="0.43"/><circle cx="567" cy="670" r="2.8" fill="#ff9a4a" opacity="0.49"/><circle cx="502" cy="586" r="3.4" fill="#ff9a4a" opacity="0.72"/><circle cx="778" cy="839" r="2.5" fill="#ff9a4a" opacity="0.66"/><circle cx="560" cy="793" r="4.1" fill="#ff9a4a" opacity="0.61"/><circle cx="435" cy="802" r="4.1" fill="#ff9a4a" opacity="0.45"/><circle cx="628" cy="890" r="4.6" fill="#ff9a4a" opacity="0.67"/><circle cx="699" cy="545" r="5.4" fill="#ff9a4a" opacity="0.49"/><circle cx="542" cy="445" r="5.6" fill="#ff9a4a" opacity="0.54"/><circle cx="407" cy="991" r="2.9" fill="#ff9a4a" opacity="0.95"/><circle cx="629" cy="651" r="3.0" fill="#ff9a4a" opacity="0.79"/><circle cx="555" cy="763" r="5.3" fill="#ff9a4a" opacity="0.60"/><circle cx="582" cy="630" r="3.6" fill="#ff9a4a" opacity="0.76"/><circle cx="673" cy="710" r="4.7" fill="#ff9a4a" opacity="0.90"/><circle cx="643" cy="686" r="4.0" fill="#ff9a4a" opacity="0.80"/><circle cx="301" cy="696" r="2.8" fill="#ff9a4a" opacity="0.39"/><circle cx="597" cy="724" r="4.2" fill="#ff9a4a" opacity="0.66"/><circle cx="473" cy="667" r="2.7" fill="#ff9a4a" opacity="0.47"/><circle cx="838" cy="340" r="5.7" fill="#ff9a4a" opacity="0.41"/><circle cx="947" cy="831" r="3.8" fill="#ff9a4a" opacity="0.81"/>
<rect width="1024" height="1024" fill="none" stroke="#000" stroke-opacity=".35" stroke-width="40"/>
</svg>